# xmcd
#
# Track frame offsets:
#	150
#	22027
#	39053
#	53416
#	66406
#	82542
#	98633
#	112670
#	126971
#	142125
#	171455
#
# Disc length: 2635 seconds
#
# Revision: 0
# Processed by: cddbd v1.5.2PL0 Copyright (c) Steve Scherf et al.
# Submitted via: audiograbber 1.83.01
#
DISCID=850a490b
DTITLE=Various Artist - ASK 1004 - Best Of Winter 2006: Country Vol. 2
DYEAR=2006
DGENRE=Country
TTITLE0=Brooks and Dunn - Believe
TTITLE1=Underwood, Carrie - Jesus, Take The Wheel
TTITLE2=Strait, George - She Let Herself Go
TTITLE3=Wilson, Gretchen - I Don't Feel Like Loving You Today
TTITLE4=Wilson, Gretchen - One Bud Wiser
TTITLE5=Ingram, Jack - Wherever You Are
TTITLE6=Johnson, Jamey - Dollar, The
TTITLE7=Nichols, Joe - Tequila Makes Her Clothes Fall Off
TTITLE8=Chesney, Kenny - Living In Fast Forward
TTITLE9=McBride, Martina - Help Me Make It Through The Night
TTITLE10=Data Track - Data Track
EXTD=
EXTT0=
EXTT1=
EXTT2=
EXTT3=
EXTT4=
EXTT5=
EXTT6=
EXTT7=
EXTT8=
EXTT9=
EXTT10=
PLAYORDER=
